<?xml version="1.0" encoding="utf-8"?>
<!-- Generator: Adobe Illustrator 27.9.0, SVG Export Plug-In . SVG Version: 6.00 Build 0)  -->
<svg version="1.1" id="Layer_1" xmlns="http://www.w3.org/2000/svg" xmlns:xlink="http://www.w3.org/1999/xlink" x="0px" y="0px"
	 viewBox="0 0 762.9 895" style="enable-background:new 0 0 762.9 895;" xml:space="preserve">
<path d="M137,855.2c-2,0-3.4-2-2.7-3.9c2.6-7.1,5.1-14,7.7-20.8c0.3-0.7,2.2-1.2,3.4-1.2c20.9-0.3,66.6-0.7,66.6-0.7
	c9.5-13.7,20.8-30.2,30-44c5.9-8.7,10.8-18.1,13.2-28.4c1.4-6.1,0.9-12.6,1.1-18.9c0.2-6.5,0-12.9,0-19.6c4,1.7,35.1,15.1,44.9,19.2
	c0,0-5.8,21.4-9.3,30.1c-2.4,5.9-6.4,11.2-10.4,16.2c-7.6,9.7-15.6,19-23.4,28.5c-3.4,4.1-13,16.1-14,17.6l51.6-0.6
	c7.8-10.3,16.6-22.7,24.1-33.3c7.6-10.7,15.2-21.7,17.9-34.8c1.4-6.7,1.8-37.2,1.8-37.2c-37.5-14.5-75.9-31.8-111.4-50.6
	C166.4,640.1,114.5,593.4,83,541.8C64.7,509,45.2,472.6,41,417.2c-1.6-38,1.1-88.6,37-143.2c14.7-23.7,42.7-46.6,67.6-59.7
	c6.4-3.4,13.2-6,20.2-8c0,0,8.4-24.6,12.3-33.5c7.5-17,17.7-33.3,27.7-47.1c6.9-9.8,24.3-27.4,36.6-37.9
	c19.1-15.5,27.9-21.1,47.3-31.8c20.7-10.7,42.2-17,63.4-20.4c14.3-2.3,28.8-2.3,43.2-0.4c20,2.7,39.1,8,56.6,18
	c7.2,4.1,13.5,9.7,20.1,14.7c2.9,2.1,5.5,5.1,8.7,6.3c16.7,7.4,33.6,18,45.3,25.4c13.7,8.5,33.8,22.8,52.6,43.5
	c1.1,1.2,2,2.4,2.8,3.8c2,3.6,2.8,6.8,1,10.4c-3.6,7.3-34.9,14.2-52.1,15.3l-0.7,0c-21.9,1.4-57.7,0.8-79.6-1.4
	c-6.6-0.7-13.3-1.4-19.9-2.3c-5.3-0.7-9.2-0.4-13.1,3c-4.7,4.1-8,6.8-12.3,10.5c-10.3,8.9-19.5,18.8-27.4,29.8
	c-11.9,16.7-23.8,39.2-28.4,70.4c-8.9-0.6-17.4-1.2-25.9-1.7c-14.4-0.8-28.7-0.6-42.9,2.2c-21.7,4.3-38.3,16.5-51.3,33.9
	c-24.4,32.4-32,72-30.9,112.4c0.7,26.2,5.8,48.5,13,72.2c3.5,11.5,7.9,22.8,13.2,33.7c8.1,16.7,18.1,32.1,30.1,46.9
	c28.1,34.6,66.5,62.7,107.2,80.7c28,12.4,76.5,26,97.8,29.7c38.3,6.5,65.9,9.7,104,8.8c15.5-0.4,35.3-1.8,50.7-2.6l113.8,111.7
	l-88.4,71.1l-82.6-108.8l26.8-1.2l47,55l13.4-9.6l-55.9-66.2c-107.6,2.4-152-3.5-205.5-15c-2.4,9.8-5,18.9-7.5,28.7
	c-2,8-7.4,14-12.4,20.1c-10.8,13.2-34.5,41.8-35.7,43.9c4.1,0,23,0.2,29.1,0.1c2.8-0.1,4.2,0.9,4.7,3.5c1.4,6.5,2.8,13,4.3,19.6
	c0.4,1.8-1,3.6-2.8,3.6C336.5,855.2,166,855.2,137,855.2z M402.8,100.8c10,8.1,30,0.8,32.7-11.5c2.4-10.8-3.3-21.9-14.2-23.4
	c-5.8-0.8-12.4-0.7-18,4.4c-3.2,3-5.4,7.1-6.1,11.4C396.3,87.6,397,95.4,402.8,100.8z"/>
<path d="M347.7,316.5c-0.5,22,0.8,71,54.4,154c65.5,101.5,174,189.8,182.4,197.2c-0.8,0.1-46.8,3.4-98.8-3.5
	c-32.5-4.9-111.9-21.4-169.4-68.7c-32.9-27.1-49-51.8-63.6-84.8c-13.9-31.4-21.1-59.6-19.3-94.2c1-19,4-37.7,11-55.6
	c13.1-33.6,30.5-47.7,64.2-47.7C317.8,313.3,332,314,347.7,316.5z"/>
</svg>